<svg xmlns="http://www.w3.org/2000/svg"><style>:root svg:not(:target){display:none}</style><svg viewBox="0 0 85 85" fill="none" id="blue-ballon"><circle cx="42.6732" cy="42.9455" r="41.5021" transform="rotate(7.76637 42.6732 42.9455)" fill="url(#blue-ballon_0)" stroke="url(#blue-ballon_1)"></circle><defs><radialGradient id="blue-ballon_0" cx="0" cy="0" r="1" gradientUnits="userSpaceOnUse" gradientTransform="translate(55.5433 66.1717) rotate(-106.618) scale(64.4598 55.4518)"><stop stop-color="#045DFA"></stop><stop offset="0.831635" stop-color="#0FC1D7"></stop><stop offset="1" stop-color="#06F6C7"></stop></radialGradient><radialGradient id="blue-ballon_1" cx="0" cy="0" r="1" gradientUnits="userSpaceOnUse" gradientTransform="translate(18.2276 12.7752) rotate(49.4145) scale(85.7286)"><stop stop-color="#5EFFDF"></stop><stop offset="1" stop-color="#0777F1" stop-opacity="0.41"></stop></radialGradient></defs></svg><svg viewBox="0 0 40 17" fill="none" id="burger"><rect y="0.199951" width="40" height="3" rx="1.5" fill="#FBF7FE"></rect><rect y="13.2" width="40" height="3" rx="1.5" fill="#FBF7FE"></rect></svg><svg viewBox="0 0 23 23" fill="none" id="close"><path d="M14.1436 11.5L22.2061 3.45623C22.5592 3.10316 22.7576 2.6243 22.7576 2.12498C22.7576 1.62567 22.5592 1.1468 22.2061 0.793732C21.8531 0.440662 21.3742 0.24231 20.8749 0.24231C20.3756 0.24231 19.8967 0.440662 19.5436 0.793732L11.4999 8.85623L3.45614 0.793732C3.10307 0.440662 2.6242 0.24231 2.12489 0.24231C1.62557 0.24231 1.1467 0.440662 0.793635 0.793732C0.440566 1.1468 0.242214 1.62567 0.242214 2.12498C0.242214 2.6243 0.440566 3.10316 0.793635 3.45623L8.85614 11.5L0.793635 19.5437C0.617895 19.718 0.478406 19.9254 0.383215 20.1539C0.288023 20.3824 0.239014 20.6275 0.239014 20.875C0.239014 21.1225 0.288023 21.3676 0.383215 21.5961C0.478406 21.8245 0.617895 22.0319 0.793635 22.2062C0.967941 22.382 1.17532 22.5215 1.4038 22.6167C1.63229 22.7118 1.87736 22.7609 2.12489 22.7609C2.37241 22.7609 2.61748 22.7118 2.84597 22.6167C3.07445 22.5215 3.28183 22.382 3.45614 22.2062L11.4999 14.1437L19.5436 22.2062C19.7179 22.382 19.9253 22.5215 20.1538 22.6167C20.3823 22.7118 20.6274 22.7609 20.8749 22.7609C21.1224 22.7609 21.3675 22.7118 21.596 22.6167C21.8245 22.5215 22.0318 22.382 22.2061 22.2062C22.3819 22.0319 22.5214 21.8245 22.6166 21.5961C22.7118 21.3676 22.7608 21.1225 22.7608 20.875C22.7608 20.6275 22.7118 20.3824 22.6166 20.1539C22.5214 19.9254 22.3819 19.718 22.2061 19.5437L14.1436 11.5Z" fill="white"></path></svg><svg viewBox="0 0 128 55" fill="none" id="logo"><circle cx="21.4021" cy="27.4021" r="20.026" transform="rotate(-25.7323 21.4021 27.4021)" fill="url(#logo_0)" stroke="url(#logo_1)"></circle><path d="M78.5782 13V42H75.0937L58.891 19.2305H58.6006V42H55V13H58.4845L74.7453 35.8262H75.0356V13H78.5782Z" fill="white"></path><path d="M84.5565 42V13H102.385V16.1152H88.1571V25.9141H101.05V29.0293H88.1571V42H84.5565Z" fill="white"></path><path d="M105.699 16.1152V13H128V16.1152H118.65V42H115.049V16.1152H105.699Z" fill="white"></path><defs><radialGradient id="logo_0" cx="0" cy="0" r="1" gradientUnits="userSpaceOnUse" gradientTransform="translate(21.7179 8.77089) rotate(90.4621) scale(39.1585)"><stop stop-color="#DEA8FF"></stop><stop offset="0.445112" stop-color="#9D6AD9"></stop><stop offset="1" stop-color="#7A2BF6"></stop></radialGradient><radialGradient id="logo_1" cx="0" cy="0" r="1" gradientUnits="userSpaceOnUse" gradientTransform="translate(21.8389 10.37) rotate(80.1061) scale(38.1251)"><stop stop-color="#E2C1FF" stop-opacity="0.53"></stop><stop offset="1" stop-color="#853DF2" stop-opacity="0.55"></stop></radialGradient></defs></svg><svg viewBox="0 0 153 153" fill="none" id="puple-ballon"><circle cx="76.3865" cy="76.3865" r="75.445" transform="rotate(-25.7323 76.3865 76.3865)" fill="url(#puple-ballon_0)" stroke="url(#puple-ballon_1)"></circle><defs><radialGradient id="puple-ballon_0" cx="0" cy="0" r="1" gradientUnits="userSpaceOnUse" gradientTransform="translate(77.5549 7.45187) rotate(90.4621) scale(144.884)"><stop stop-color="#DEA8FF"></stop><stop offset="0.445112" stop-color="#9D6AD9"></stop><stop offset="1" stop-color="#7A2BF6"></stop></radialGradient><radialGradient id="puple-ballon_1" cx="0" cy="0" r="1" gradientUnits="userSpaceOnUse" gradientTransform="translate(78.0023 13.3684) rotate(80.1061) scale(141.061)"><stop stop-color="#E2C1FF" stop-opacity="0.53"></stop><stop offset="1" stop-color="#853DF2" stop-opacity="0.55"></stop></radialGradient></defs></svg><svg viewBox="0 0 180 180" fill="none" id="purple-blur-balloon"><g filter="url(#purple-blur-balloon_0)"><circle cx="89.8777" cy="89.8827" r="65.8299" transform="rotate(-25.7323 89.8777 89.8827)" fill="url(#purple-blur-balloon_1)"></circle><circle cx="89.8777" cy="89.8827" r="65.3299" transform="rotate(-25.7323 89.8777 89.8827)" stroke="url(#purple-blur-balloon_2)"></circle></g><defs><filter id="purple-blur-balloon_0" x="0.0327148" y="0.0377197" width="179.69" height="179.69" filterUnits="userSpaceOnUse" color-interpolation-filters="sRGB"><feFlood flood-opacity="0" result="BackgroundImageFix"></feFlood><feBlend mode="normal" in="SourceGraphic" in2="BackgroundImageFix" result="shape"></feBlend><feGaussianBlur stdDeviation="12" result="effect1_foregroundBlur_2_203"></feGaussianBlur></filter><radialGradient id="purple-blur-balloon_1" cx="0" cy="0" r="1" gradientUnits="userSpaceOnUse" gradientTransform="translate(90.8905 30.1294) rotate(90.4621) scale(125.587)"><stop stop-color="#DEA8FF"></stop><stop offset="0.445112" stop-color="#9D6AD9"></stop><stop offset="1" stop-color="#7A2BF6"></stop></radialGradient><radialGradient id="purple-blur-balloon_2" cx="0" cy="0" r="1" gradientUnits="userSpaceOnUse" gradientTransform="translate(91.2783 35.2579) rotate(80.1061) scale(122.273)"><stop stop-color="#E2C1FF" stop-opacity="0.53"></stop><stop offset="1" stop-color="#853DF2" stop-opacity="0.55"></stop></radialGradient></defs></svg></svg>